# MagicaVoxel @ Ephtracy

# group
o 

# material
mtllib beach_turn_180.mtl
usemtl palette

# normals
vn -1 0 0
vn 1 0 0
vn 0 0 1
vn 0 0 -1
vn 0 -1 0
vn 0 1 0

# texcoords
vt 0.787109 0.5
vt 0.818359 0.5
vt 0.849609 0.5

# verts
v -0.4 0 0.4
v -0.4 0 -0.4
v -0.4 0.3 0.4
v -0.4 0.3 -0.4
v -0.1 0.2 0.4
v -0.1 0.2 0.1
v -0.1 0.3 0.4
v -0.1 0.3 0.1
v 0 0.2 0.1
v 0 0.2 0
v 0 0.3 0.1
v 0 0.3 0
v 0.1 0.1 0.4
v 0.1 0.1 0.2
v 0.1 0.2 0.4
v 0.1 0.2 0.2
v 0.1 0.2 0
v 0.1 0.2 -0.1
v 0.1 0.3 0
v 0.1 0.3 -0.1
v 0.2 0.1 0.2
v 0.2 0.1 0.1
v 0.2 0.2 0.2
v 0.2 0.2 0.1
v 0.4 0 0.4
v 0.4 0 0.1
v 0.4 0 -0.1
v 0.4 0 -0.4
v 0.4 0.1 0.4
v 0.4 0.1 0.1
v 0.4 0.2 0.1
v 0.4 0.2 -0.1
v 0.4 0.3 -0.1
v 0.4 0.3 -0.4
v -0.4 0 0.4
v -0.4 0.3 0.4
v -0.1 0 0.4
v -0.1 0.2 0.4
v -0.1 0.3 0.4
v 0.1 0 0.4
v 0.1 0.1 0.4
v 0.1 0.2 0.4
v 0.4 0 0.4
v 0.4 0.1 0.4
v 0.1 0.1 0.2
v 0.1 0.2 0.2
v 0.2 0.1 0.2
v 0.2 0.2 0.2
v -0.1 0.2 0.1
v -0.1 0.3 0.1
v 0 0.2 0.1
v 0 0.3 0.1
v 0.2 0.1 0.1
v 0.2 0.2 0.1
v 0.4 0.1 0.1
v 0.4 0.2 0.1
v 0 0.2 0
v 0 0.3 0
v 0.1 0.2 0
v 0.1 0.3 0
v 0.1 0.2 -0.1
v 0.1 0.3 -0.1
v 0.4 0.2 -0.1
v 0.4 0.3 -0.1
v -0.4 0 -0.4
v -0.4 0.3 -0.4
v 0.4 0 -0.4
v 0.4 0.3 -0.4
v -0.4 0 0.4
v -0.1 0 0.4
v 0.1 0 0.4
v 0.4 0 0.4
v 0.1 0 0.2
v 0.2 0 0.2
v -0.1 0 0.1
v 0 0 0.1
v 0.2 0 0.1
v 0.4 0 0.1
v 0 0 0
v 0.1 0 0
v 0.1 0 -0.1
v 0.4 0 -0.1
v -0.4 0 -0.4
v 0.4 0 -0.4
v 0.1 0.1 0.4
v 0.4 0.1 0.4
v 0.1 0.1 0.2
v 0.2 0.1 0.2
v 0.2 0.1 0.1
v 0.4 0.1 0.1
v -0.1 0.2 0.4
v 0.1 0.2 0.4
v 0.1 0.2 0.2
v 0.2 0.2 0.2
v -0.1 0.2 0.1
v 0 0.2 0.1
v 0.2 0.2 0.1
v 0.4 0.2 0.1
v 0 0.2 0
v 0.1 0.2 0
v 0.1 0.2 -0.1
v 0.4 0.2 -0.1
v -0.4 0.3 0.4
v -0.1 0.3 0.4
v -0.1 0.3 0.1
v 0 0.3 0.1
v 0 0.3 0
v 0.1 0.3 0
v 0.1 0.3 -0.1
v 0.4 0.3 -0.1
v -0.4 0.3 -0.4
v 0.4 0.3 -0.4

# faces
f 3/3/1 2/3/1 1/3/1
f 4/3/1 2/3/1 3/3/1
f 5/3/2 6/3/2 7/3/2
f 7/3/2 6/3/2 8/3/2
f 9/3/2 10/3/2 11/3/2
f 11/3/2 10/3/2 12/3/2
f 13/1/2 14/1/2 15/1/2
f 15/1/2 14/1/2 16/1/2
f 17/3/2 18/3/2 19/3/2
f 19/3/2 18/3/2 20/3/2
f 21/1/2 22/1/2 23/1/2
f 23/1/2 22/1/2 24/1/2
f 25/2/2 26/2/2 29/2/2
f 26/1/2 27/1/2 30/1/2
f 29/2/2 26/2/2 30/2/2
f 30/1/2 27/1/2 31/1/2
f 27/3/2 28/3/2 32/3/2
f 31/1/2 27/1/2 32/1/2
f 32/3/2 28/3/2 33/3/2
f 33/3/2 28/3/2 34/3/2
f 37/3/3 36/3/3 35/3/3
f 38/3/3 36/3/3 37/3/3
f 39/3/3 36/3/3 38/3/3
f 40/1/3 38/1/3 37/1/3
f 41/1/3 38/1/3 40/1/3
f 42/1/3 38/1/3 41/1/3
f 43/2/3 41/2/3 40/2/3
f 44/2/3 41/2/3 43/2/3
f 47/1/3 46/1/3 45/1/3
f 48/1/3 46/1/3 47/1/3
f 51/3/3 50/3/3 49/3/3
f 52/3/3 50/3/3 51/3/3
f 55/1/3 54/1/3 53/1/3
f 56/1/3 54/1/3 55/1/3
f 59/3/3 58/3/3 57/3/3
f 60/3/3 58/3/3 59/3/3
f 63/3/3 62/3/3 61/3/3
f 64/3/3 62/3/3 63/3/3
f 65/3/4 66/3/4 67/3/4
f 67/3/4 66/3/4 68/3/4
f 73/1/5 71/1/5 70/1/5
f 73/2/5 72/2/5 71/2/5
f 74/2/5 72/2/5 73/2/5
f 75/3/5 70/3/5 69/3/5
f 75/1/5 73/1/5 70/1/5
f 75/1/5 74/1/5 73/1/5
f 76/1/5 74/1/5 75/1/5
f 77/2/5 72/2/5 74/2/5
f 77/1/5 74/1/5 76/1/5
f 78/2/5 72/2/5 77/2/5
f 79/3/5 76/3/5 75/3/5
f 79/1/5 77/1/5 76/1/5
f 79/1/5 78/1/5 77/1/5
f 80/1/5 78/1/5 79/1/5
f 81/3/5 80/3/5 79/3/5
f 81/1/5 78/1/5 80/1/5
f 82/1/5 78/1/5 81/1/5
f 83/3/5 75/3/5 69/3/5
f 83/3/5 79/3/5 75/3/5
f 83/3/5 82/3/5 81/3/5
f 83/3/5 81/3/5 79/3/5
f 84/3/5 82/3/5 83/3/5
f 85/2/6 86/2/6 87/2/6
f 87/2/6 86/2/6 88/2/6
f 88/2/6 86/2/6 89/2/6
f 89/2/6 86/2/6 90/2/6
f 91/1/6 92/1/6 93/1/6
f 91/1/6 93/1/6 95/1/6
f 93/1/6 94/1/6 95/1/6
f 95/1/6 94/1/6 96/1/6
f 96/1/6 94/1/6 97/1/6
f 97/1/6 98/1/6 99/1/6
f 96/1/6 97/1/6 99/1/6
f 99/1/6 98/1/6 100/1/6
f 100/1/6 98/1/6 101/1/6
f 101/1/6 98/1/6 102/1/6
f 103/3/6 104/3/6 105/3/6
f 105/3/6 106/3/6 107/3/6
f 107/3/6 108/3/6 109/3/6
f 103/3/6 105/3/6 111/3/6
f 109/3/6 110/3/6 111/3/6
f 107/3/6 109/3/6 111/3/6
f 105/3/6 107/3/6 111/3/6
f 111/3/6 110/3/6 112/3/6
