# MagicaVoxel @ Ephtracy

# group
o 

# material
mtllib beach_corner.mtl
usemtl palette

# normals
vn -1 0 0
vn 1 0 0
vn 0 0 1
vn 0 0 -1
vn 0 -1 0
vn 0 1 0

# texcoords
vt 0.787109 0.5
vt 0.818359 0.5
vt 0.849609 0.5

# verts
v -0.4 0 0.4
v -0.4 0 -0.4
v -0.4 0.1 0.4
v -0.4 0.1 -0.4
v -0.1 0.1 0.4
v -0.1 0.1 0.1
v -0.1 0.2 0.4
v -0.1 0.2 0.1
v 0 0.1 0.1
v 0 0.1 0
v 0 0.2 0.1
v 0 0.2 0
v 0.1 0.1 0
v 0.1 0.1 -0.1
v 0.1 0.2 0.4
v 0.1 0.2 0.2
v 0.1 0.2 0
v 0.1 0.2 -0.1
v 0.1 0.3 0.4
v 0.1 0.3 0.2
v 0.2 0.2 0.2
v 0.2 0.2 0.1
v 0.2 0.3 0.2
v 0.2 0.3 0.1
v 0.4 0 0.4
v 0.4 0 0.1
v 0.4 0 -0.1
v 0.4 0 -0.4
v 0.4 0.1 -0.1
v 0.4 0.1 -0.4
v 0.4 0.2 0.1
v 0.4 0.2 -0.1
v 0.4 0.3 0.4
v 0.4 0.3 0.1
v -0.4 0 0.4
v -0.4 0.1 0.4
v -0.1 0 0.4
v -0.1 0.1 0.4
v -0.1 0.2 0.4
v 0.1 0 0.4
v 0.1 0.2 0.4
v 0.1 0.3 0.4
v 0.4 0 0.4
v 0.4 0.3 0.4
v 0.1 0.2 0.2
v 0.1 0.3 0.2
v 0.2 0.2 0.2
v 0.2 0.3 0.2
v -0.1 0.1 0.1
v -0.1 0.2 0.1
v 0 0.1 0.1
v 0 0.2 0.1
v 0.2 0.2 0.1
v 0.2 0.3 0.1
v 0.4 0.2 0.1
v 0.4 0.3 0.1
v 0 0.1 0
v 0 0.2 0
v 0.1 0.1 0
v 0.1 0.2 0
v 0.1 0.1 -0.1
v 0.1 0.2 -0.1
v 0.4 0.1 -0.1
v 0.4 0.2 -0.1
v -0.4 0 -0.4
v -0.4 0.1 -0.4
v 0.4 0 -0.4
v 0.4 0.1 -0.4
v -0.4 0 0.4
v -0.1 0 0.4
v 0.1 0 0.4
v 0.4 0 0.4
v 0.1 0 0.2
v 0.2 0 0.2
v -0.1 0 0.1
v 0 0 0.1
v 0.2 0 0.1
v 0.4 0 0.1
v 0 0 0
v 0.1 0 0
v 0.1 0 -0.1
v 0.4 0 -0.1
v -0.4 0 -0.4
v 0.4 0 -0.4
v -0.4 0.1 0.4
v -0.1 0.1 0.4
v -0.1 0.1 0.1
v 0 0.1 0.1
v 0 0.1 0
v 0.1 0.1 0
v 0.1 0.1 -0.1
v 0.4 0.1 -0.1
v -0.4 0.1 -0.4
v 0.4 0.1 -0.4
v -0.1 0.2 0.4
v 0.1 0.2 0.4
v 0.1 0.2 0.2
v 0.2 0.2 0.2
v -0.1 0.2 0.1
v 0 0.2 0.1
v 0.2 0.2 0.1
v 0.4 0.2 0.1
v 0 0.2 0
v 0.1 0.2 0
v 0.1 0.2 -0.1
v 0.4 0.2 -0.1
v 0.1 0.3 0.4
v 0.4 0.3 0.4
v 0.1 0.3 0.2
v 0.2 0.3 0.2
v 0.2 0.3 0.1
v 0.4 0.3 0.1

# faces
f 3/2/1 2/2/1 1/2/1
f 4/2/1 2/2/1 3/2/1
f 7/1/1 6/1/1 5/1/1
f 8/1/1 6/1/1 7/1/1
f 11/1/1 10/1/1 9/1/1
f 12/1/1 10/1/1 11/1/1
f 17/1/1 14/1/1 13/1/1
f 18/1/1 14/1/1 17/1/1
f 19/3/1 16/3/1 15/3/1
f 20/3/1 16/3/1 19/3/1
f 23/3/1 22/3/1 21/3/1
f 24/3/1 22/3/1 23/3/1
f 26/1/2 27/1/2 29/1/2
f 27/2/2 28/2/2 29/2/2
f 29/2/2 28/2/2 30/2/2
f 25/3/2 26/3/2 31/3/2
f 26/1/2 29/1/2 31/1/2
f 31/1/2 29/1/2 32/1/2
f 25/3/2 31/3/2 33/3/2
f 33/3/2 31/3/2 34/3/2
f 37/2/3 36/2/3 35/2/3
f 38/2/3 36/2/3 37/2/3
f 40/1/3 38/1/3 37/1/3
f 40/1/3 39/1/3 38/1/3
f 41/1/3 39/1/3 40/1/3
f 43/3/3 41/3/3 40/3/3
f 43/3/3 42/3/3 41/3/3
f 44/3/3 42/3/3 43/3/3
f 45/3/4 46/3/4 47/3/4
f 47/3/4 46/3/4 48/3/4
f 49/1/4 50/1/4 51/1/4
f 51/1/4 50/1/4 52/1/4
f 53/3/4 54/3/4 55/3/4
f 55/3/4 54/3/4 56/3/4
f 57/1/4 58/1/4 59/1/4
f 59/1/4 58/1/4 60/1/4
f 61/1/4 62/1/4 63/1/4
f 63/1/4 62/1/4 64/1/4
f 65/2/4 66/2/4 67/2/4
f 67/2/4 66/2/4 68/2/4
f 73/1/5 71/1/5 70/1/5
f 73/3/5 72/3/5 71/3/5
f 74/3/5 72/3/5 73/3/5
f 75/2/5 70/2/5 69/2/5
f 75/1/5 73/1/5 70/1/5
f 75/1/5 74/1/5 73/1/5
f 76/1/5 74/1/5 75/1/5
f 77/3/5 72/3/5 74/3/5
f 77/1/5 74/1/5 76/1/5
f 78/3/5 72/3/5 77/3/5
f 79/2/5 76/2/5 75/2/5
f 79/1/5 77/1/5 76/1/5
f 79/1/5 78/1/5 77/1/5
f 80/1/5 78/1/5 79/1/5
f 81/2/5 80/2/5 79/2/5
f 81/1/5 78/1/5 80/1/5
f 82/1/5 78/1/5 81/1/5
f 83/2/5 75/2/5 69/2/5
f 83/2/5 79/2/5 75/2/5
f 83/2/5 82/2/5 81/2/5
f 83/2/5 81/2/5 79/2/5
f 84/2/5 82/2/5 83/2/5
f 85/2/6 86/2/6 87/2/6
f 87/2/6 88/2/6 89/2/6
f 89/2/6 90/2/6 91/2/6
f 85/2/6 87/2/6 93/2/6
f 91/2/6 92/2/6 93/2/6
f 89/2/6 91/2/6 93/2/6
f 87/2/6 89/2/6 93/2/6
f 93/2/6 92/2/6 94/2/6
f 95/1/6 96/1/6 97/1/6
f 95/1/6 97/1/6 99/1/6
f 97/1/6 98/1/6 99/1/6
f 99/1/6 98/1/6 100/1/6
f 100/1/6 98/1/6 101/1/6
f 101/1/6 102/1/6 103/1/6
f 100/1/6 101/1/6 103/1/6
f 103/1/6 102/1/6 104/1/6
f 104/1/6 102/1/6 105/1/6
f 105/1/6 102/1/6 106/1/6
f 107/3/6 108/3/6 109/3/6
f 109/3/6 108/3/6 110/3/6
f 110/3/6 108/3/6 111/3/6
f 111/3/6 108/3/6 112/3/6
