# MagicaVoxel @ Ephtracy

# group
o 

# material
mtllib beach.mtl
usemtl palette

# normals
vn -1 0 0
vn 1 0 0
vn 0 0 1
vn 0 0 -1
vn 0 -1 0
vn 0 1 0

# texcoords
vt 0.787109 0.5
vt 0.818359 0.5
vt 0.849609 0.5

# verts
v -0.4 0 0.4
v -0.4 0 -0.4
v -0.4 0.1 0.4
v -0.4 0.1 -0.4
v -0.1 0.1 0.4
v -0.1 0.1 -0.4
v -0.1 0.2 0.4
v -0.1 0.2 -0.4
v 0.1 0.2 0.4
v 0.1 0.2 -0.4
v 0.1 0.3 0.4
v 0.1 0.3 -0.4
v 0.4 0 0.4
v 0.4 0 -0.4
v 0.4 0.3 0.4
v 0.4 0.3 -0.4
v -0.4 0 0.4
v -0.4 0.1 0.4
v -0.1 0 0.4
v -0.1 0.1 0.4
v -0.1 0.2 0.4
v 0.1 0 0.4
v 0.1 0.2 0.4
v 0.1 0.3 0.4
v 0.4 0 0.4
v 0.4 0.3 0.4
v -0.4 0 -0.4
v -0.4 0.1 -0.4
v -0.1 0 -0.4
v -0.1 0.1 -0.4
v -0.1 0.2 -0.4
v 0.1 0 -0.4
v 0.1 0.2 -0.4
v 0.1 0.3 -0.4
v 0.4 0 -0.4
v 0.4 0.3 -0.4
v -0.4 0 0.4
v -0.1 0 0.4
v 0.1 0 0.4
v 0.4 0 0.4
v -0.4 0 -0.4
v -0.1 0 -0.4
v 0.1 0 -0.4
v 0.4 0 -0.4
v -0.4 0.1 0.4
v -0.1 0.1 0.4
v -0.4 0.1 -0.4
v -0.1 0.1 -0.4
v -0.1 0.2 0.4
v 0.1 0.2 0.4
v -0.1 0.2 -0.4
v 0.1 0.2 -0.4
v 0.1 0.3 0.4
v 0.4 0.3 0.4
v 0.1 0.3 -0.4
v 0.4 0.3 -0.4

# faces
f 3/2/1 2/2/1 1/2/1
f 4/2/1 2/2/1 3/2/1
f 7/1/1 6/1/1 5/1/1
f 8/1/1 6/1/1 7/1/1
f 11/3/1 10/3/1 9/3/1
f 12/3/1 10/3/1 11/3/1
f 13/3/2 14/3/2 15/3/2
f 15/3/2 14/3/2 16/3/2
f 19/2/3 18/2/3 17/2/3
f 20/2/3 18/2/3 19/2/3
f 22/1/3 20/1/3 19/1/3
f 22/1/3 21/1/3 20/1/3
f 23/1/3 21/1/3 22/1/3
f 25/3/3 23/3/3 22/3/3
f 25/3/3 24/3/3 23/3/3
f 26/3/3 24/3/3 25/3/3
f 27/2/4 28/2/4 29/2/4
f 29/2/4 28/2/4 30/2/4
f 29/1/4 30/1/4 32/1/4
f 30/1/4 31/1/4 32/1/4
f 32/1/4 31/1/4 33/1/4
f 32/3/4 33/3/4 35/3/4
f 33/3/4 34/3/4 35/3/4
f 35/3/4 34/3/4 36/3/4
f 41/2/5 38/2/5 37/2/5
f 42/1/5 39/1/5 38/1/5
f 42/2/5 38/2/5 41/2/5
f 43/3/5 40/3/5 39/3/5
f 43/1/5 39/1/5 42/1/5
f 44/3/5 40/3/5 43/3/5
f 45/2/6 46/2/6 47/2/6
f 47/2/6 46/2/6 48/2/6
f 49/1/6 50/1/6 51/1/6
f 51/1/6 50/1/6 52/1/6
f 53/3/6 54/3/6 55/3/6
f 55/3/6 54/3/6 56/3/6
